<?xml version="1.0" encoding="UTF-8"?>
<svg id="Layer_2" data-name="Layer 2" xmlns="http://www.w3.org/2000/svg" viewBox="0 0 33.46 42.13">
  <defs>
    <style>
      .cls-1 {
        fill: #1e423d;
      }
    </style>
  </defs>
  <g id="Capa_1" data-name="Capa 1">
    <g>
      <path class="cls-1" d="m32.49,18.62c.46-.65.97-1.38.97-2.25s-.52-1.61-.97-2.25c-.3-.43-.59-.83-.67-1.19-.09-.38,0-.89.09-1.42.13-.77.27-1.64-.09-2.4-.37-.77-1.15-1.2-1.84-1.58-.47-.26-.91-.5-1.14-.8-.24-.3-.38-.79-.53-1.3-.22-.75-.47-1.6-1.13-2.13-.66-.53-1.55-.58-2.32-.63-.54-.03-1.05-.06-1.39-.23-.34-.16-.67-.54-1.02-.93-.53-.59-1.12-1.25-1.97-1.44-.82-.18-1.62.15-2.34.44-.51.21-.98.4-1.38.4s-.88-.2-1.38-.4c-.71-.29-1.53-.63-2.34-.44-.84.19-1.44.86-1.97,1.44-.35.39-.69.77-1.02.93-.35.17-.86.2-1.39.23-.78.05-1.66.1-2.32.63-.67.53-.91,1.38-1.13,2.13-.15.52-.29,1-.53,1.3-.24.3-.68.54-1.14.8-.69.38-1.46.81-1.84,1.58-.37.76-.22,1.63-.09,2.4.09.53.17,1.04.09,1.42-.08.36-.37.76-.67,1.19-.46.65-.97,1.38-.97,2.25s.52,1.61.97,2.25c.3.43.59.83.67,1.19.09.38,0,.89-.09,1.42-.13.77-.27,1.64.09,2.4.37.77,1.15,1.2,1.84,1.58.47.26.91.5,1.14.8.24.3.38.79.53,1.3.22.75.47,1.6,1.13,2.13.29.23.63.37.97.46v11.33c0,.3.15.58.4.74.15.1.32.15.49.15.12,0,.24-.02.35-.07l8.48-3.69,7.94,3.68c.28.13.59.11.85-.06.26-.16.41-.44.41-.75v-11.32c.35-.09.68-.23.97-.46.67-.53.91-1.38,1.13-2.13.15-.52.29-1,.53-1.3.24-.3.68-.54,1.14-.8.69-.38,1.46-.81,1.84-1.58.37-.76.22-1.63.09-2.4-.09-.54-.17-1.04-.09-1.42.08-.36.37-.76.67-1.19Zm-7.54,22.05l-7.58-3.51c-.23-.11-.49-.11-.73,0l-8.13,3.54v-10.63s.07,0,.11,0c.54.03,1.05.06,1.39.23.34.16.67.54,1.02.93.53.59,1.12,1.25,1.97,1.44.81.19,1.62-.15,2.34-.44.51-.21.98-.4,1.38-.4s.88.2,1.38.4c.57.23,1.2.49,1.85.49.16,0,.33-.02.49-.05.84-.19,1.44-.86,1.97-1.44.35-.39.69-.77,1.02-.93.35-.17.86-.2,1.39-.23.04,0,.07,0,.11,0v10.6Zm6.42-22.84c-.37.52-.75,1.06-.89,1.68-.15.64-.04,1.31.07,1.95.1.62.2,1.21.02,1.58-.18.38-.71.67-1.27.98-.56.31-1.15.63-1.55,1.14-.41.51-.59,1.15-.77,1.77-.18.61-.34,1.19-.67,1.45-.32.26-.92.29-1.55.33-.65.04-1.32.08-1.91.36-.58.28-1.02.77-1.45,1.25-.43.48-.83.93-1.25,1.02-.4.09-.94-.14-1.52-.37-.61-.25-1.23-.51-1.9-.51s-1.3.26-1.9.51c-.58.24-1.12.46-1.52.37-.42-.1-.82-.55-1.25-1.02-.43-.48-.87-.97-1.45-1.25-.59-.29-1.26-.33-1.91-.36-.63-.04-1.23-.07-1.55-.33-.33-.26-.5-.84-.67-1.45-.18-.62-.37-1.26-.77-1.77-.4-.51-.99-.83-1.55-1.14-.56-.31-1.08-.6-1.27-.98-.18-.37-.08-.96.02-1.58.11-.64.22-1.31.07-1.95-.14-.62-.52-1.16-.89-1.68-.37-.53-.72-1.02-.72-1.46s.35-.94.72-1.46c.37-.52.75-1.06.89-1.68.15-.64.04-1.31-.07-1.95-.1-.62-.2-1.21-.02-1.58.18-.38.71-.67,1.27-.98.56-.31,1.15-.63,1.55-1.14.41-.51.59-1.15.77-1.77.18-.61.34-1.19.67-1.45.33-.26.92-.3,1.55-.33.65-.04,1.32-.08,1.91-.36.58-.28,1.02-.77,1.45-1.25.43-.48.83-.93,1.25-1.02.39-.09.94.14,1.52.37.61.25,1.23.51,1.9.51s1.3-.26,1.9-.51c.58-.24,1.12-.46,1.52-.37.42.1.82.55,1.25,1.02.43.48.87.97,1.45,1.25.59.29,1.26.33,1.91.36.63.04,1.23.07,1.55.33.33.26.5.84.67,1.45.18.62.37,1.26.77,1.77.4.51.99.83,1.55,1.14.56.31,1.08.6,1.27.98.18.37.08.96-.02,1.58-.11.64-.22,1.31-.07,1.95.14.62.52,1.16.89,1.68.37.53.72,1.02.72,1.46s-.35.94-.72,1.46Z"/>
      <path class="cls-1" d="m16.73,24.29c-4.3,0-7.79-3.49-7.79-7.79s3.49-7.79,7.79-7.79,7.79,3.49,7.79,7.79-3.49,7.79-7.79,7.79Zm0-14.6c-3.76,0-6.81,3.06-6.81,6.81s3.06,6.81,6.81,6.81,6.81-3.06,6.81-6.81-3.06-6.81-6.81-6.81Z"/>
    </g>
  </g>
</svg>